# xmcd
#
# Track frame offsets:
#	150
#	16156
#	35763
#	47561
#	62919
#	80799
#	94589
#	109139
#	128836
#	147377
#	160209
#	176034
#
# Disc length: 2541 seconds
# Revision: 0
# Processed by: cddbd v1.5.2PL0 Copyright (c) Steve Scherf et al.
# Submitted via: dBpowerAMP V12.0
#
DISCID=a409eb0c
DTITLE=Nelson King - Blues Songs
DYEAR=2013
DGENRE=Blues
TTITLE0=Looking For You
TTITLE1=Affairs Of The Heart
TTITLE2=Dirty Road
TTITLE3=If The Blues
TTITLE4=Judgement Day
TTITLE5=Blues at Midnight
TTITLE6=Reconsider Baby
TTITLE7=The Hardest Thing
TTITLE8=Tough Love
TTITLE9=You Shake Me Baby
TTITLE10=Thunder In The Rain
TTITLE11=Wreckage solo+
EXTD=
EXTT0=
EXTT1=
EXTT2=
EXTT3=
EXTT4=
EXTT5=
EXTT6=
EXTT7=
EXTT8=
EXTT9=
EXTT10=
EXTT11=
PLAYORDER=
